<svg width="32" height="32" viewBox="0 0 32 32" fill="none" xmlns="http://www.w3.org/2000/svg">
<rect width="32" height="32" fill="#EAF3F2"/>
<path d="M27.2929 9.07211C27.6834 8.68158 27.6834 8.04842 27.2929 7.65789L24.3421 4.70711C23.9516 4.31658 23.3184 4.31658 22.9279 4.70711L16.7071 10.9279C16.3166 11.3184 15.6834 11.3184 15.2929 10.9279L9.07211 4.70711C8.68158 4.31658 8.04842 4.31658 7.65789 4.70711L4.70711 7.65789C4.31658 8.04842 4.31658 8.68158 4.70711 9.07211L10.9279 15.2929C11.3184 15.6834 11.3184 16.3166 10.9279 16.7071L4.70711 22.9279C4.31658 23.3184 4.31658 23.9516 4.70711 24.3421L7.65789 27.2929C8.04842 27.6834 8.68158 27.6834 9.07211 27.2929L15.2929 21.0721C15.6834 20.6816 16.3166 20.6816 16.7071 21.0721L22.9279 27.2929C23.3184 27.6834 23.9516 27.6834 24.3421 27.2929L27.2929 24.3421C27.6834 23.9516 27.6834 23.3184 27.2929 22.9279L21.0721 16.7071C20.6816 16.3166 20.6816 15.6834 21.0721 15.2929L27.2929 9.07211Z" fill="#235275"/>
</svg>
