<svg width="112" height="63" viewBox="0 0 112 63" fill="none" xmlns="http://www.w3.org/2000/svg">
<path d="M5.904 43.48C4.336 43.48 3.088 42.904 2.16 41.752C1.264 40.568 0.816 38.968 0.816 36.952C0.816 34.52 1.44 31.992 2.688 29.368C3.968 26.712 5.616 24.52 7.632 22.792C9.68 21.032 11.776 20.152 13.92 20.152C14.912 20.152 15.712 20.36 16.32 20.776C16.96 21.16 17.28 21.688 17.28 22.36C17.28 22.84 17.008 23.576 16.464 24.568C16.208 25.016 15.936 25.24 15.648 25.24C15.424 25.24 15.232 25.144 15.072 24.952C14.208 24.088 13.232 23.656 12.144 23.656C10.96 23.656 9.888 24.104 8.928 25C8 25.896 7.264 27.128 6.72 28.696C6.208 30.232 5.952 31.96 5.952 33.88C5.952 35.608 6.176 36.872 6.624 37.672C7.104 38.44 7.856 38.824 8.88 38.824C10.576 38.824 12.08 37.64 13.392 35.272C13.552 34.92 13.68 34.696 13.776 34.6C13.904 34.472 14.048 34.408 14.208 34.408C14.528 34.408 14.688 34.696 14.688 35.272C14.688 36.36 14.256 37.56 13.392 38.872C12.528 40.152 11.408 41.24 10.032 42.136C8.688 43.032 7.312 43.48 5.904 43.48ZM22.3515 43.48C20.8475 43.48 19.6635 42.936 18.7995 41.848C17.9355 40.728 17.5035 39.128 17.5035 37.048C17.5035 34.456 18.1435 31.848 19.4235 29.224C20.7355 26.6 22.3675 24.44 24.3195 22.744C26.3035 21.016 28.2235 20.152 30.0795 20.152C31.5835 20.152 32.7515 20.712 33.5835 21.832C34.4155 22.952 34.8315 24.52 34.8315 26.536C34.8315 29 34.2075 31.56 32.9595 34.216C31.7435 36.872 30.1595 39.08 28.2075 40.84C26.2875 42.6 24.3355 43.48 22.3515 43.48ZM24.9435 39.304C25.8395 39.304 26.6555 38.84 27.3915 37.912C28.1275 36.952 28.7035 35.672 29.1195 34.072C29.5355 32.472 29.7435 30.728 29.7435 28.84C29.7435 27.24 29.5675 26.088 29.2155 25.384C28.8635 24.68 28.3195 24.328 27.5835 24.328C26.7195 24.328 25.9035 24.776 25.1355 25.672C24.3995 26.536 23.7915 27.736 23.3115 29.272C22.8635 30.808 22.6395 32.52 22.6395 34.408C22.6395 37.672 23.4075 39.304 24.9435 39.304ZM39.1268 43.48C38.6148 43.48 38.3588 43.32 38.3588 43C38.3588 42.84 38.4388 42.52 38.5988 42.04C38.9508 41.016 39.1748 40.184 39.2708 39.544C39.5268 38.328 39.8788 36.456 40.3268 33.928C40.8068 31.4 41.1588 29.224 41.3828 27.4C41.5428 26.28 41.6228 25.592 41.6228 25.336C41.6228 24.92 41.4948 24.712 41.2388 24.712C40.5668 24.712 39.7028 25.688 38.6468 27.64C38.5188 27.896 38.3748 28.136 38.2148 28.36C38.0548 28.552 37.8948 28.648 37.7348 28.648C37.4148 28.648 37.2548 28.376 37.2548 27.832C37.2548 26.968 37.6228 25.928 38.3588 24.712C39.1268 23.464 40.0548 22.392 41.1428 21.496C42.2628 20.6 43.3348 20.152 44.3588 20.152C44.9988 20.152 45.5108 20.376 45.8948 20.824C46.2788 21.272 46.4708 21.976 46.4708 22.936C46.4708 24.184 46.3428 25.608 46.0868 27.208H46.1348C47.3188 25.096 48.5988 23.4 49.9748 22.12C51.3508 20.808 52.6628 20.152 53.9108 20.152C55.5428 20.152 56.3588 21.272 56.3588 23.512C56.3588 24.088 56.2788 24.888 56.1188 25.912L56.0708 26.2H56.1188C57.3668 24.312 58.6148 22.84 59.8628 21.784C61.1108 20.696 62.3108 20.152 63.4628 20.152C65.0948 20.152 65.9108 21.304 65.9108 23.608C65.9108 24.568 65.7668 25.768 65.4788 27.208C64.9348 29.96 64.6148 31.56 64.5188 32.008C64.3268 33.032 64.1028 34.232 63.8468 35.608C63.5908 36.952 63.4628 37.752 63.4628 38.008C63.4628 38.648 63.6708 38.968 64.0868 38.968C64.5668 38.968 65.0148 38.648 65.4308 38.008C65.8468 37.368 66.2948 36.44 66.7748 35.224C66.9668 34.776 67.1908 34.552 67.4468 34.552C67.6068 34.552 67.7188 34.664 67.7828 34.888C67.8788 35.112 67.9108 35.4 67.8788 35.752C67.7508 36.904 67.3188 38.088 66.5828 39.304C65.8788 40.488 65.0148 41.48 63.9908 42.28C62.9668 43.08 61.9428 43.48 60.9188 43.48C59.3188 43.48 58.5188 42.424 58.5188 40.312C58.5188 39 58.9028 36.456 59.6708 32.68C59.9268 31.432 60.1508 30.2 60.3428 28.984C60.5668 27.736 60.6948 26.728 60.7268 25.96V25.672C60.7268 25.096 60.5508 24.808 60.1988 24.808C59.7508 24.808 59.1748 25.24 58.4708 26.104C57.7988 26.936 57.1108 28.04 56.4068 29.416C55.7348 30.792 55.1748 32.2 54.7268 33.64L53.2388 41.464C53.1428 41.944 52.5828 42.408 51.5588 42.856C50.5348 43.272 49.6548 43.48 48.9188 43.48C48.6308 43.48 48.4548 43.416 48.3907 43.288C48.3268 43.192 48.3268 43 48.3907 42.712C48.4228 42.584 48.8868 40.168 49.7828 35.464C50.7108 30.76 51.2228 27.592 51.3188 25.96V25.576C51.3188 25.064 51.1588 24.808 50.8388 24.808C50.2948 24.808 49.6068 25.368 48.7748 26.488C47.9428 27.608 47.1588 29.016 46.4228 30.712C45.6868 32.408 45.1588 34.056 44.8388 35.656L44.0708 39.544C43.8788 40.504 43.2548 41.4 42.1988 42.232C41.1748 43.064 40.1508 43.48 39.1268 43.48ZM64.8352 62.152C63.9392 62.152 63.3152 62.056 62.9632 61.864C62.5792 61.704 62.1472 61.352 61.6672 60.808C60.9952 59.944 60.6592 59.288 60.6592 58.84C60.6592 58.52 60.8672 58.36 61.2832 58.36C61.5392 58.36 62.0032 58.456 62.6752 58.648C63.8912 59 64.9472 59.176 65.8432 59.176C67.4432 59.176 68.7393 58.856 69.7313 58.216C70.7233 57.576 71.5233 56.456 72.1313 54.856C72.7713 53.256 73.3153 50.936 73.7633 47.896L77.2673 24.568H75.0113C74.2753 24.568 73.6513 24.68 73.1393 24.904C72.6273 25.128 72.3073 25.24 72.1793 25.24C71.8913 25.24 71.7473 25.096 71.7473 24.808C71.7473 24.488 71.8273 24.168 71.9873 23.848C72.3713 22.952 72.9473 22.2 73.7153 21.592C74.5153 20.952 75.3473 20.632 76.2113 20.632H77.8913L77.9873 19.768C79.1393 12.92 81.2673 7.928 84.3713 4.792C85.4913 3.608 86.5633 2.792 87.5873 2.344C88.6433 1.896 89.7953 1.576 91.0433 1.384C92.0353 1.224 92.6753 1.112 92.9633 1.048C93.2833 0.951999 93.4913 0.903998 93.5873 0.903998C93.8753 0.903998 94.0193 1.08 94.0193 1.432C94.0193 1.72 93.8913 2.072 93.6353 2.488C93.4113 2.872 93.1233 3.24 92.7712 3.592C92.4513 3.912 92.1153 4.12 91.7633 4.216C91.4113 4.28 90.9633 4.312 90.4193 4.312C89.1393 4.312 88.0673 4.808 87.2033 5.8C86.3073 6.792 85.5073 8.408 84.8033 10.648C84.1313 12.856 83.4753 15.896 82.8353 19.768L82.6913 20.632H84.6593C85.6193 20.632 86.3713 20.52 86.9153 20.296C87.4593 20.072 87.7953 19.96 87.9233 19.96C88.2433 19.96 88.4033 20.12 88.4033 20.44C88.4033 20.696 88.3393 21 88.2113 21.352C87.8913 22.152 87.3153 22.888 86.4833 23.56C85.6833 24.232 84.8513 24.568 83.9873 24.568H82.1153L79.5233 41.56C78.4673 48.632 76.7393 53.832 74.3393 57.16C71.9713 60.488 68.8032 62.152 64.8352 62.152ZM91.3076 62.152C89.8996 62.152 88.6996 61.8 87.7076 61.096C86.7156 60.392 85.9796 59.512 85.4996 58.456C85.0196 57.432 84.7796 56.408 84.7796 55.384C84.7796 54.296 85.0516 53.352 85.5956 52.552C86.1076 51.752 86.6996 51.144 87.3716 50.728C88.0116 50.344 88.4916 50.152 88.8116 50.152C88.9396 50.152 89.0356 50.2 89.0996 50.296C89.1636 50.392 89.1956 50.6 89.1956 50.92C89.2276 53.48 89.5476 55.32 90.1556 56.44C90.7956 57.56 91.9636 58.12 93.6596 58.12C96.2516 58.12 98.1556 56.808 99.3716 54.184C99.6596 53.544 99.8836 52.856 100.044 52.12C100.236 51.384 100.556 49.976 101.004 47.896L102.108 42.52L103.068 38.008H102.972C101.756 39.736 100.588 41.08 99.4676 42.04C98.3476 43 97.3556 43.48 96.4916 43.48C94.7316 43.48 93.8836 41.448 93.9476 37.384L94.2356 26.44C94.2676 25.64 94.2196 25.096 94.0916 24.808C93.9956 24.52 93.7876 24.376 93.4676 24.376C93.1476 24.376 92.8436 24.536 92.5556 24.856C92.2996 25.144 91.9636 25.64 91.5476 26.344C91.2276 26.856 91.0036 27.208 90.8756 27.4C90.7476 27.56 90.5876 27.64 90.3956 27.64C90.2036 27.64 90.0756 27.592 90.0116 27.496C89.9476 27.368 89.9156 27.16 89.9156 26.872C89.9156 25.976 90.2196 25 90.8276 23.944C91.4676 22.856 92.2676 21.96 93.2276 21.256C94.2196 20.52 95.2116 20.152 96.2036 20.152C97.2276 20.152 97.9476 20.584 98.3636 21.448C98.7796 22.28 98.9876 23.608 98.9876 25.432C98.9876 26.232 98.9716 26.856 98.9396 27.304L98.6996 33.4C98.6356 34.68 98.6036 35.464 98.6036 35.752C98.6036 36.648 98.6676 37.256 98.7956 37.576C98.9236 37.896 99.1156 38.056 99.3716 38.056C99.9156 38.056 100.556 37.512 101.292 36.424C102.06 35.336 102.796 33.928 103.5 32.2C104.204 30.472 104.764 28.712 105.18 26.92L105.852 24.088C106.076 23.096 106.7 22.2 107.724 21.4C108.78 20.568 109.82 20.152 110.844 20.152C111.484 20.152 111.804 20.36 111.804 20.776C111.804 20.904 111.74 21.112 111.612 21.4C111.484 21.656 111.356 21.976 111.228 22.36C110.812 23.416 110.364 25.08 109.884 27.352L107.34 39.832L106.86 42.136C106.252 45.112 105.772 47.288 105.42 48.664C105.068 50.04 104.62 51.288 104.076 52.408C103.564 53.56 102.828 54.744 101.868 55.96C100.268 57.944 98.5396 59.464 96.6836 60.52C94.8276 61.608 93.0356 62.152 91.3076 62.152Z" fill="#222222"/>
</svg>
