<svg width="112" height="62" viewBox="0 0 112 62" fill="none" xmlns="http://www.w3.org/2000/svg">
<path d="M5.904 42.98C4.336 42.98 3.088 42.404 2.16 41.252C1.264 40.068 0.816 38.468 0.816 36.452C0.816 34.02 1.44 31.492 2.688 28.868C3.968 26.212 5.616 24.02 7.632 22.292C9.68 20.532 11.776 19.652 13.92 19.652C14.912 19.652 15.712 19.86 16.32 20.276C16.96 20.66 17.28 21.188 17.28 21.86C17.28 22.34 17.008 23.076 16.464 24.068C16.208 24.516 15.936 24.74 15.648 24.74C15.424 24.74 15.232 24.644 15.072 24.452C14.208 23.588 13.232 23.156 12.144 23.156C10.96 23.156 9.888 23.604 8.928 24.5C8 25.396 7.264 26.628 6.72 28.196C6.208 29.732 5.952 31.46 5.952 33.38C5.952 35.108 6.176 36.372 6.624 37.172C7.104 37.94 7.856 38.324 8.88 38.324C10.576 38.324 12.08 37.14 13.392 34.772C13.552 34.42 13.68 34.196 13.776 34.1C13.904 33.972 14.048 33.908 14.208 33.908C14.528 33.908 14.688 34.196 14.688 34.772C14.688 35.86 14.256 37.06 13.392 38.372C12.528 39.652 11.408 40.74 10.032 41.636C8.688 42.532 7.312 42.98 5.904 42.98ZM22.3515 42.98C20.8475 42.98 19.6635 42.436 18.7995 41.348C17.9355 40.228 17.5035 38.628 17.5035 36.548C17.5035 33.956 18.1435 31.348 19.4235 28.724C20.7355 26.1 22.3675 23.94 24.3195 22.244C26.3035 20.516 28.2235 19.652 30.0795 19.652C31.5835 19.652 32.7515 20.212 33.5835 21.332C34.4155 22.452 34.8315 24.02 34.8315 26.036C34.8315 28.5 34.2075 31.06 32.9595 33.716C31.7435 36.372 30.1595 38.58 28.2075 40.34C26.2875 42.1 24.3355 42.98 22.3515 42.98ZM24.9435 38.804C25.8395 38.804 26.6555 38.34 27.3915 37.412C28.1275 36.452 28.7035 35.172 29.1195 33.572C29.5355 31.972 29.7435 30.228 29.7435 28.34C29.7435 26.74 29.5675 25.588 29.2155 24.884C28.8635 24.18 28.3195 23.828 27.5835 23.828C26.7195 23.828 25.9035 24.276 25.1355 25.172C24.3995 26.036 23.7915 27.236 23.3115 28.772C22.8635 30.308 22.6395 32.02 22.6395 33.908C22.6395 37.172 23.4075 38.804 24.9435 38.804ZM39.1268 42.98C38.6148 42.98 38.3588 42.82 38.3588 42.5C38.3588 42.34 38.4388 42.02 38.5988 41.54C38.9508 40.516 39.1748 39.684 39.2708 39.044C39.5268 37.828 39.8788 35.956 40.3268 33.428C40.8068 30.9 41.1588 28.724 41.3828 26.9C41.5428 25.78 41.6228 25.092 41.6228 24.836C41.6228 24.42 41.4948 24.212 41.2388 24.212C40.5668 24.212 39.7028 25.188 38.6468 27.14C38.5188 27.396 38.3748 27.636 38.2148 27.86C38.0548 28.052 37.8948 28.148 37.7348 28.148C37.4148 28.148 37.2548 27.876 37.2548 27.332C37.2548 26.468 37.6228 25.428 38.3588 24.212C39.1268 22.964 40.0548 21.892 41.1428 20.996C42.2628 20.1 43.3348 19.652 44.3588 19.652C44.9988 19.652 45.5108 19.876 45.8948 20.324C46.2788 20.772 46.4708 21.476 46.4708 22.436C46.4708 23.684 46.3428 25.108 46.0868 26.708H46.1348C47.3188 24.596 48.5988 22.9 49.9748 21.62C51.3508 20.308 52.6628 19.652 53.9108 19.652C55.5428 19.652 56.3588 20.772 56.3588 23.012C56.3588 23.588 56.2788 24.388 56.1188 25.412L56.0708 25.7H56.1188C57.3668 23.812 58.6148 22.34 59.8628 21.284C61.1108 20.196 62.3108 19.652 63.4628 19.652C65.0948 19.652 65.9108 20.804 65.9108 23.108C65.9108 24.068 65.7668 25.268 65.4788 26.708C64.9348 29.46 64.6148 31.06 64.5188 31.508C64.3268 32.532 64.1028 33.732 63.8468 35.108C63.5908 36.452 63.4628 37.252 63.4628 37.508C63.4628 38.148 63.6708 38.468 64.0868 38.468C64.5668 38.468 65.0148 38.148 65.4308 37.508C65.8468 36.868 66.2948 35.94 66.7748 34.724C66.9668 34.276 67.1908 34.052 67.4468 34.052C67.6068 34.052 67.7188 34.164 67.7828 34.388C67.8788 34.612 67.9108 34.9 67.8788 35.252C67.7508 36.404 67.3188 37.588 66.5828 38.804C65.8788 39.988 65.0148 40.98 63.9908 41.78C62.9668 42.58 61.9428 42.98 60.9188 42.98C59.3188 42.98 58.5188 41.924 58.5188 39.812C58.5188 38.5 58.9028 35.956 59.6708 32.18C59.9268 30.932 60.1508 29.7 60.3428 28.484C60.5668 27.236 60.6948 26.228 60.7268 25.46V25.172C60.7268 24.596 60.5508 24.308 60.1988 24.308C59.7508 24.308 59.1748 24.74 58.4708 25.604C57.7988 26.436 57.1108 27.54 56.4068 28.916C55.7348 30.292 55.1748 31.7 54.7268 33.14L53.2388 40.964C53.1428 41.444 52.5828 41.908 51.5588 42.356C50.5348 42.772 49.6548 42.98 48.9188 42.98C48.6308 42.98 48.4548 42.916 48.3907 42.788C48.3268 42.692 48.3268 42.5 48.3907 42.212C48.4228 42.084 48.8868 39.668 49.7828 34.964C50.7108 30.26 51.2228 27.092 51.3188 25.46V25.076C51.3188 24.564 51.1588 24.308 50.8388 24.308C50.2948 24.308 49.6068 24.868 48.7748 25.988C47.9428 27.108 47.1588 28.516 46.4228 30.212C45.6868 31.908 45.1588 33.556 44.8388 35.156L44.0708 39.044C43.8788 40.004 43.2548 40.9 42.1988 41.732C41.1748 42.564 40.1508 42.98 39.1268 42.98ZM64.8352 61.652C63.9392 61.652 63.3152 61.556 62.9632 61.364C62.5792 61.204 62.1472 60.852 61.6672 60.308C60.9952 59.444 60.6592 58.788 60.6592 58.34C60.6592 58.02 60.8672 57.86 61.2832 57.86C61.5392 57.86 62.0032 57.956 62.6752 58.148C63.8912 58.5 64.9472 58.676 65.8432 58.676C67.4432 58.676 68.7393 58.356 69.7313 57.716C70.7233 57.076 71.5233 55.956 72.1313 54.356C72.7713 52.756 73.3153 50.436 73.7633 47.396L77.2673 24.068H75.0113C74.2753 24.068 73.6513 24.18 73.1393 24.404C72.6273 24.628 72.3073 24.74 72.1793 24.74C71.8913 24.74 71.7473 24.596 71.7473 24.308C71.7473 23.988 71.8273 23.668 71.9873 23.348C72.3713 22.452 72.9473 21.7 73.7153 21.092C74.5153 20.452 75.3473 20.132 76.2113 20.132H77.8913L77.9873 19.268C79.1393 12.42 81.2673 7.428 84.3713 4.292C85.4913 3.108 86.5633 2.292 87.5873 1.844C88.6433 1.396 89.7953 1.076 91.0433 0.883998C92.0353 0.723998 92.6753 0.611999 92.9633 0.547999C93.2833 0.451999 93.4913 0.403998 93.5873 0.403998C93.8753 0.403998 94.0193 0.579998 94.0193 0.931997C94.0193 1.22 93.8913 1.572 93.6353 1.988C93.4113 2.372 93.1233 2.74 92.7712 3.092C92.4513 3.412 92.1153 3.62 91.7633 3.716C91.4113 3.78 90.9633 3.812 90.4193 3.812C89.1393 3.812 88.0673 4.308 87.2033 5.3C86.3073 6.292 85.5073 7.908 84.8033 10.148C84.1313 12.356 83.4753 15.396 82.8353 19.268L82.6913 20.132H84.6593C85.6193 20.132 86.3713 20.02 86.9153 19.796C87.4593 19.572 87.7953 19.46 87.9233 19.46C88.2433 19.46 88.4033 19.62 88.4033 19.94C88.4033 20.196 88.3393 20.5 88.2113 20.852C87.8913 21.652 87.3153 22.388 86.4833 23.06C85.6833 23.732 84.8513 24.068 83.9873 24.068H82.1153L79.5233 41.06C78.4673 48.132 76.7393 53.332 74.3393 56.66C71.9713 59.988 68.8032 61.652 64.8352 61.652ZM91.3076 61.652C89.8996 61.652 88.6996 61.3 87.7076 60.596C86.7156 59.892 85.9796 59.012 85.4996 57.956C85.0196 56.932 84.7796 55.908 84.7796 54.884C84.7796 53.796 85.0516 52.852 85.5956 52.052C86.1076 51.252 86.6996 50.644 87.3716 50.228C88.0116 49.844 88.4916 49.652 88.8116 49.652C88.9396 49.652 89.0356 49.7 89.0996 49.796C89.1636 49.892 89.1956 50.1 89.1956 50.42C89.2276 52.98 89.5476 54.82 90.1556 55.94C90.7956 57.06 91.9636 57.62 93.6596 57.62C96.2516 57.62 98.1556 56.308 99.3716 53.684C99.6596 53.044 99.8836 52.356 100.044 51.62C100.236 50.884 100.556 49.476 101.004 47.396L102.108 42.02L103.068 37.508H102.972C101.756 39.236 100.588 40.58 99.4676 41.54C98.3476 42.5 97.3556 42.98 96.4916 42.98C94.7316 42.98 93.8836 40.948 93.9476 36.884L94.2356 25.94C94.2676 25.14 94.2196 24.596 94.0916 24.308C93.9956 24.02 93.7876 23.876 93.4676 23.876C93.1476 23.876 92.8436 24.036 92.5556 24.356C92.2996 24.644 91.9636 25.14 91.5476 25.844C91.2276 26.356 91.0036 26.708 90.8756 26.9C90.7476 27.06 90.5876 27.14 90.3956 27.14C90.2036 27.14 90.0756 27.092 90.0116 26.996C89.9476 26.868 89.9156 26.66 89.9156 26.372C89.9156 25.476 90.2196 24.5 90.8276 23.444C91.4676 22.356 92.2676 21.46 93.2276 20.756C94.2196 20.02 95.2116 19.652 96.2036 19.652C97.2276 19.652 97.9476 20.084 98.3636 20.948C98.7796 21.78 98.9876 23.108 98.9876 24.932C98.9876 25.732 98.9716 26.356 98.9396 26.804L98.6996 32.9C98.6356 34.18 98.6036 34.964 98.6036 35.252C98.6036 36.148 98.6676 36.756 98.7956 37.076C98.9236 37.396 99.1156 37.556 99.3716 37.556C99.9156 37.556 100.556 37.012 101.292 35.924C102.06 34.836 102.796 33.428 103.5 31.7C104.204 29.972 104.764 28.212 105.18 26.42L105.852 23.588C106.076 22.596 106.7 21.7 107.724 20.9C108.78 20.068 109.82 19.652 110.844 19.652C111.484 19.652 111.804 19.86 111.804 20.276C111.804 20.404 111.74 20.612 111.612 20.9C111.484 21.156 111.356 21.476 111.228 21.86C110.812 22.916 110.364 24.58 109.884 26.852L107.34 39.332L106.86 41.636C106.252 44.612 105.772 46.788 105.42 48.164C105.068 49.54 104.62 50.788 104.076 51.908C103.564 53.06 102.828 54.244 101.868 55.46C100.268 57.444 98.5396 58.964 96.6836 60.02C94.8276 61.108 93.0356 61.652 91.3076 61.652Z" fill="white"/>
</svg>
