<svg width="48" height="48" viewBox="0 0 48 48" fill="none" xmlns="http://www.w3.org/2000/svg">
<g clip-path="url(#clip0_1_535)">
<path d="M42.24 44.16C44.3608 44.16 46.08 42.4408 46.08 40.32C46.08 38.1992 44.3608 36.48 42.24 36.48C40.1192 36.48 38.4 38.1992 38.4 40.32C38.4 42.4408 40.1192 44.16 42.24 44.16Z" fill="#222222"/>
<path d="M14.4 44.16C16.5208 44.16 18.24 42.4408 18.24 40.32C18.24 38.1992 16.5208 36.48 14.4 36.48C12.2792 36.48 10.56 38.1992 10.56 40.32C10.56 42.4408 12.2792 44.16 14.4 44.16Z" fill="#222222"/>
<path d="M45.12 31.68H15.1402L15.7805 30.6413C16.055 30.1958 16.1357 29.6573 16.0042 29.1504L15.3792 26.7446L43.2029 25.2989C44.2579 25.2451 45.12 24.336 45.12 23.28V10.56C45.12 9.50401 44.256 8.64001 43.2 8.64001H10.6742L10.2989 7.19713C10.1919 6.7856 9.95143 6.42121 9.61506 6.16112C9.2787 5.90103 8.86551 5.75995 8.44032 5.76001H1.92C1.41078 5.76001 0.922425 5.96229 0.562355 6.32236C0.202285 6.68243 0 7.17079 0 7.68001C0 8.18923 0.202285 8.67758 0.562355 9.03765C0.922425 9.39772 1.41078 9.60001 1.92 9.60001H6.95616L12.0826 29.3232L10.0666 32.592C9.88724 32.8829 9.78887 33.2163 9.78161 33.5579C9.77435 33.8995 9.85847 34.2369 10.0253 34.535C10.1914 34.8336 10.4343 35.0823 10.7288 35.2555C11.0234 35.4287 11.3588 35.52 11.7005 35.52H45.12C45.6292 35.52 46.1176 35.3177 46.4776 34.9577C46.8377 34.5976 47.04 34.1092 47.04 33.6C47.04 33.0908 46.8377 32.6024 46.4776 32.2424C46.1176 31.8823 45.6292 31.68 45.12 31.68Z" fill="#222222"/>
</g>
<defs>
<clipPath id="clip0_1_535">
<rect width="48" height="48" fill="white"/>
</clipPath>
</defs>
</svg>
