<svg width="48" height="49" viewBox="0 0 48 49" fill="none" xmlns="http://www.w3.org/2000/svg">
<g clip-path="url(#clip0_1_305)">
<path d="M42.2399 44.66C44.3607 44.66 46.0799 42.9408 46.0799 40.82C46.0799 38.6992 44.3607 36.98 42.2399 36.98C40.1191 36.98 38.3999 38.6992 38.3999 40.82C38.3999 42.9408 40.1191 44.66 42.2399 44.66Z" fill="white"/>
<path d="M14.4001 44.66C16.5208 44.66 18.2401 42.9408 18.2401 40.82C18.2401 38.6992 16.5208 36.98 14.4001 36.98C12.2793 36.98 10.5601 38.6992 10.5601 40.82C10.5601 42.9408 12.2793 44.66 14.4001 44.66Z" fill="white"/>
<path d="M45.12 32.18H15.1402L15.7805 31.1413C16.055 30.6958 16.1357 30.1573 16.0042 29.6504L15.3792 27.2446L43.2029 25.7989C44.2579 25.7451 45.12 24.836 45.12 23.78V11.06C45.12 10.004 44.256 9.14001 43.2 9.14001H10.6742L10.2989 7.69713C10.1919 7.2856 9.95143 6.92121 9.61506 6.66112C9.2787 6.40103 8.86551 6.25995 8.44032 6.26001H1.92C1.41078 6.26001 0.922425 6.46229 0.562355 6.82236C0.202285 7.18243 0 7.67079 0 8.18001C0 8.68923 0.202285 9.17758 0.562355 9.53765C0.922425 9.89772 1.41078 10.1 1.92 10.1H6.95616L12.0826 29.8232L10.0666 33.092C9.88724 33.3829 9.78887 33.7163 9.78161 34.0579C9.77435 34.3995 9.85847 34.7369 10.0253 35.035C10.1914 35.3336 10.4343 35.5823 10.7288 35.7555C11.0234 35.9287 11.3588 36.02 11.7005 36.02H45.12C45.6292 36.02 46.1176 35.8177 46.4776 35.4577C46.8377 35.0976 47.04 34.6092 47.04 34.1C47.04 33.5908 46.8377 33.1024 46.4776 32.7424C46.1176 32.3823 45.6292 32.18 45.12 32.18Z" fill="white"/>
</g>
<defs>
<clipPath id="clip0_1_305">
<rect width="48" height="48" fill="white" transform="translate(0 0.5)"/>
</clipPath>
</defs>
</svg>
